<svg width="68" height="68" viewBox="0 0 68 68" fill="none" xmlns="http://www.w3.org/2000/svg">
<path d="M4.25 55.25C4.25 55.8136 4.47388 56.3541 4.8724 56.7526C5.27091 57.1511 5.81141 57.375 6.375 57.375H61.625C62.1886 57.375 62.7291 57.1511 63.1276 56.7526C63.5261 56.3541 63.75 55.8136 63.75 55.25V29.4844H4.25V55.25ZM13.0156 36.9219C13.0156 36.6401 13.1276 36.3698 13.3268 36.1706C13.5261 35.9713 13.7963 35.8594 14.0781 35.8594H26.2969C26.5787 35.8594 26.8489 35.9713 27.0482 36.1706C27.2474 36.3698 27.3594 36.6401 27.3594 36.9219V45.4219C27.3594 45.7037 27.2474 45.9739 27.0482 46.1732C26.8489 46.3724 26.5787 46.4844 26.2969 46.4844H14.0781C13.7963 46.4844 13.5261 46.3724 13.3268 46.1732C13.1276 45.9739 13.0156 45.7037 13.0156 45.4219V36.9219ZM61.625 10.625H6.375C5.81141 10.625 5.27091 10.8489 4.8724 11.2474C4.47388 11.6459 4.25 12.1864 4.25 12.75V21.5156H63.75V12.75C63.75 12.1864 63.5261 11.6459 63.1276 11.2474C62.7291 10.8489 62.1886 10.625 61.625 10.625Z" fill="#185DAB"/>
</svg>
