<svg width="200" height="200" viewBox="0 0 200 200" fill="none" xmlns="http://www.w3.org/2000/svg">
<circle cx="100" cy="100" r="95.5" fill="#09407E" stroke="#185DAB" stroke-width="9"/>
<path d="M144.946 71.125H134.71L109.597 96.2271C110.462 98.4314 110.542 100.866 109.822 103.122C109.103 105.379 107.629 107.318 105.648 108.615C103.667 109.912 101.299 110.488 98.9439 110.244C96.5885 110.001 94.3886 108.954 92.7142 107.28C91.0398 105.606 89.993 103.406 89.7498 101.05C89.5067 98.6948 90.082 96.3275 91.379 94.3463C92.676 92.3652 94.6157 90.891 96.8717 90.1718C99.1278 89.4526 101.563 89.5321 103.767 90.397L128.875 65.2895V55.054C128.875 53.6844 129.419 52.371 130.387 51.402L139.902 41.887C140.078 41.7093 140.299 41.5831 140.541 41.522C140.784 41.4609 141.038 41.4673 141.277 41.5405C141.767 41.6835 142.13 42.0905 142.229 42.591L144.759 55.2465L157.409 57.7765C157.904 57.8755 158.311 58.2385 158.454 58.728C158.526 58.9658 158.532 59.2187 158.472 59.4599C158.412 59.701 158.288 59.9214 158.113 60.0975L148.592 69.6125C148.114 70.0919 147.545 70.4723 146.919 70.7318C146.294 70.9913 145.623 71.125 144.946 71.125Z" fill="white"/>
<path d="M48.4375 100C48.4375 113.675 53.87 126.79 63.5398 136.46C73.2097 146.13 86.3248 151.563 100 151.563C106.771 151.563 113.476 150.229 119.732 147.638C125.988 145.046 131.672 141.248 136.46 136.46C141.248 131.672 145.046 125.988 147.638 119.732C150.229 113.476 151.562 106.771 151.562 100C151.562 95.061 150.869 90.287 149.577 85.7715C149.32 84.7347 149.475 83.6387 150.01 82.7141C150.545 81.7894 151.418 81.1083 152.444 80.814C153.471 80.5197 154.572 80.6352 155.516 81.1362C156.459 81.6371 157.171 82.4845 157.502 83.5C159.009 88.747 159.812 94.28 159.812 100C159.812 133.033 133.033 159.813 100 159.813C66.967 159.813 40.1875 133.033 40.1875 100C40.1875 66.967 66.967 40.1875 100 40.1875C105.582 40.182 111.132 40.9575 116.5 42.492C117.023 42.6388 117.513 42.8877 117.94 43.2242C118.366 43.5607 118.723 43.9783 118.988 44.4529C119.253 44.9276 119.421 45.4499 119.484 45.9899C119.546 46.5299 119.501 47.0769 119.351 47.5995C119.202 48.1221 118.95 48.6099 118.611 49.035C118.273 49.4601 117.853 49.814 117.377 50.0764C116.901 50.3387 116.378 50.5045 115.837 50.5639C115.297 50.6234 114.75 50.5756 114.228 50.423C109.601 49.1015 104.812 48.4332 100 48.4375C86.3248 48.4375 73.2097 53.87 63.5398 63.5398C53.87 73.2097 48.4375 86.3248 48.4375 100Z" fill="white"/>
<path d="M73.1866 99.9998C73.2019 103.643 73.9596 107.244 75.4132 110.584C76.8669 113.924 78.9861 116.933 81.6414 119.427C84.2968 121.921 87.4325 123.847 90.8573 125.089C94.282 126.33 97.9238 126.861 101.56 126.648C105.197 126.435 108.752 125.483 112.008 123.85C115.265 122.218 118.154 119.938 120.5 117.152C122.847 114.365 124.6 111.129 125.654 107.642C126.708 104.155 127.04 100.49 126.63 96.8703C126.515 96.1372 126.6 95.3866 126.876 94.6978C127.152 94.0091 127.61 93.408 128.2 92.9581C128.79 92.5083 129.491 92.2264 130.229 92.1425C130.966 92.0586 131.712 92.1756 132.389 92.4813C133.769 93.0973 134.699 94.4118 134.82 95.9188C135.674 103.153 134.253 110.473 130.754 116.862C127.256 123.251 121.854 128.392 115.3 131.569C108.745 134.746 101.364 135.803 94.1811 134.592C86.9984 133.38 80.3716 129.962 75.2216 124.81C70.073 119.665 66.6533 113.044 65.4367 105.868C64.2201 98.6909 65.2669 91.3134 68.4319 84.7584C71.597 78.2035 76.7234 72.7958 83.1002 69.2855C89.477 65.7753 96.7881 64.3363 104.02 65.1683C104.566 65.219 105.097 65.3784 105.582 65.637C106.066 65.8956 106.494 66.2483 106.84 66.6744C107.186 67.1005 107.444 67.5914 107.598 68.1184C107.752 68.6454 107.799 69.1978 107.737 69.7433C107.675 70.2888 107.504 70.8163 107.235 71.2951C106.967 71.7738 106.605 72.1941 106.172 72.5312C105.738 72.8684 105.242 73.1157 104.712 73.2585C104.182 73.4014 103.629 73.437 103.085 73.3633C99.3282 72.929 95.5225 73.294 91.9172 74.4344C88.3118 75.5747 84.9884 77.4646 82.165 79.98C79.3416 82.4954 77.0821 85.5794 75.5347 89.0297C73.9874 92.48 73.1871 96.2185 73.1866 99.9998Z" fill="white"/>
</svg>
