<svg width="200" height="200" viewBox="0 0 200 200" fill="none" xmlns="http://www.w3.org/2000/svg">
<circle cx="100" cy="100" r="95.5" fill="#09407E" stroke="#185DAB" stroke-width="9"/>
<path d="M61.5294 43.0752L55.6334 48.9628L64.4062 57.7314L70.2939 51.8438L61.5294 43.0752ZM138.475 43.0752L129.702 51.8438L135.594 57.7314L144.362 48.967L138.475 43.0752ZM100 45.6882C98.6181 45.7049 97.2195 45.7845 95.8125 45.9562C95.7706 45.9562 95.7288 45.9478 95.6869 45.9562C78.7024 47.9034 65.1851 61.6258 62.8359 78.5349C60.9599 92.1443 66.5712 104.485 75.9219 112.433C79.7468 115.697 82.3339 120.177 83.25 125.121V150.246H92.7975C94.2547 152.746 96.9138 154.433 100 154.433C103.086 154.433 105.745 152.746 107.202 150.246H116.75V133.496H117.144V128.521C117.144 122.382 120.334 116.193 125.519 111.382C132.453 104.439 137.688 94.5773 137.688 83.2501C137.688 62.5638 120.661 45.4956 100 45.6882ZM100 54.0632C116.185 53.8371 129.312 67.0863 129.312 83.2501C129.312 92.0187 125.251 99.7404 119.627 105.36L119.761 105.494C114.172 110.648 110.558 117.591 109.543 125.125H91.2272C90.3059 117.948 87.2281 111.001 81.4117 106.018C74.0124 99.7363 69.6029 90.2725 71.0769 79.586C72.9069 66.3954 83.6101 55.7884 96.7254 54.3354C97.8082 54.1844 98.8987 54.0949 99.9916 54.0674L100 54.0632ZM41.375 83.2501V91.6251H53.9375V83.2501H41.375ZM146.062 83.2501V91.6251H158.625V83.2501H146.062ZM64.4062 117.144L55.6376 125.908L61.5294 131.8L70.2897 123.031L64.4062 117.144ZM135.594 117.144L129.706 123.031L138.471 131.8L144.362 125.908L135.594 117.144ZM91.625 133.5H108.375V141.875H91.625V133.5Z" fill="white"/>
</svg>
