<svg width="200" height="200" viewBox="0 0 200 200" fill="none" xmlns="http://www.w3.org/2000/svg">
<circle cx="100" cy="100" r="95.5" fill="#09407E" stroke="#185DAB" stroke-width="9"/>
<path d="M79.3755 153.625H120.626M100.001 153.625V120.625M133.001 91.75C133.001 78.6944 132.98 57.0407 132.97 50.5C132.97 49.406 132.535 48.3568 131.761 47.5832C130.988 46.8096 129.939 46.375 128.845 46.375L71.1487 46.442C70.057 46.442 69.0097 46.8749 68.2365 47.6457C67.4633 48.4165 67.0272 49.4624 67.0237 50.5541C67.0237 58.438 66.9902 83.8558 66.9902 91.75C66.9902 108.322 88.3887 120.625 99.9902 120.625C111.592 120.625 133.001 108.322 133.001 91.75Z" stroke="white" stroke-width="10" stroke-linecap="round" stroke-linejoin="round"/>
<path d="M67 58.75H46.375V62.875C46.375 77.1114 55.0246 91.75 67 91.75M133 58.75H153.625V62.875C153.625 77.1114 144.975 91.75 133 91.75" stroke="white" stroke-width="10" stroke-linecap="round" stroke-linejoin="round"/>
</svg>
