<svg width="180" height="349" viewBox="0 0 180 349" fill="none" xmlns="http://www.w3.org/2000/svg">
<path d="M31.094 348.046C13.949 348.046 0 334.098 0 316.952V31.094C0 13.949 13.949 0 31.094 0H148.907C166.052 0 180.001 13.949 180.001 31.094V316.952C180.001 334.098 166.052 348.046 148.907 348.046H31.094Z" fill="#1E1E1E"/>
<rect x="6" y="6" width="168" height="336" rx="25" fill="url(#paint0_linear_469_957)"/>
<path d="M111.024 18.4H69.877C66.079 18.4 63 15.321 63 11.523V4H117.9V11.523C117.901 15.321 114.822 18.4 111.024 18.4Z" fill="#1E1E1E"/>
<path d="M111.151 13.8998C112.145 13.8998 112.951 13.0939 112.951 12.0998C112.951 11.1057 112.145 10.2998 111.151 10.2998C110.156 10.2998 109.351 11.1057 109.351 12.0998C109.351 13.0939 110.156 13.8998 111.151 13.8998Z" fill="black"/>
<path d="M111.151 13.367C111.851 13.367 112.418 12.7998 112.418 12.1C112.418 11.4003 111.851 10.833 111.151 10.833C110.451 10.833 109.884 11.4003 109.884 12.1C109.884 12.7998 110.451 13.367 111.151 13.367Z" fill="black"/>
<path d="M104.851 13.8998H76.051C75.061 13.8998 74.251 13.0898 74.251 12.0998C74.251 11.1098 75.061 10.2998 76.051 10.2998H104.851C105.841 10.2998 106.651 11.1098 106.651 12.0998C106.651 13.0898 105.841 13.8998 104.851 13.8998Z" fill="black"/>
<path d="M55 326H124.466" stroke="black" stroke-width="2" stroke-miterlimit="10" stroke-linecap="round" stroke-linejoin="round"/>
<defs>
<linearGradient id="paint0_linear_469_957" x1="90" y1="6" x2="90" y2="342" gradientUnits="userSpaceOnUse">
<stop stop-color="#07458B"/>
<stop offset="1" stop-color="#BFBEFF"/>
</linearGradient>
</defs>
</svg>
