<svg width="424" height="902" viewBox="0 0 424 902" fill="none" xmlns="http://www.w3.org/2000/svg">
<path d="M94.0041 496.207C94.0041 496.207 120.173 490.852 129.76 470.889C129.76 470.889 160.665 491.179 176.253 486.043C176.253 486.043 208.188 516.968 223.285 506.106C238.376 495.241 211.153 462.884 211.153 462.884L158.772 415.256L135.002 409.682L106.877 415.088C106.877 415.088 86.8632 423.723 87.108 425.202C87.3464 426.684 76.2402 447.689 75.9571 449.792C75.6762 451.889 72.4771 471.072 73.6308 473.741C74.7801 476.412 94.0041 496.207 94.0041 496.207Z" fill="#C98A79"/>
<path d="M150.267 511.099C150.367 512.24 99.5101 505.308 99.5101 505.308C99.5101 505.308 106.547 478.532 88.3528 469.369C88.3528 469.369 107.502 458.736 107.732 434.505C107.732 434.505 131.811 431.63 140.938 419.781L197.61 421.839L192.891 384.313L168.923 373.688C168.923 373.688 147.445 367.917 96.7367 384.255C56.935 397.083 60.6385 389.542 45.9502 430.691C36.2807 457.793 3.79864 514.552 0.529359 523.472C-2.73992 532.403 9.75186 550.358 21.0092 570.027C32.2622 589.696 83.9832 696.75 87.5589 714.201C91.1283 731.648 154.881 723.532 154.881 723.532L150.267 511.099Z" fill="#FFCAB3"/>
<path d="M142.479 509.896L142.496 510.684C129.968 509.4 106.164 506.203 100.666 505.46C118.268 507.751 142.556 510.752 142.479 509.896Z" fill="#FFCAB3"/>
<path d="M142.494 510.684C147.185 511.167 150.297 511.38 150.267 511.099L154.884 723.529C154.884 723.529 151.872 723.908 147.132 724.33L142.494 510.684Z" fill="#FFCAB3"/>
<g opacity="0.5">
<path d="M196.756 421.809L140.94 419.779C140.461 420.407 139.929 421.005 139.367 421.58C131.834 429.333 117.81 432.728 111.265 433.935C111.263 433.941 111.259 433.941 111.259 433.941C110.991 433.988 110.729 434.033 110.488 434.08H110.48C110.237 434.12 110.012 434.161 109.799 434.197C109.79 434.199 109.782 434.197 109.771 434.199C109.567 434.237 109.371 434.265 109.192 434.291C109.184 434.293 109.182 434.297 109.171 434.293C108.996 434.325 108.835 434.348 108.686 434.369C108.671 434.369 108.656 434.376 108.639 434.376C108.358 434.422 108.132 434.45 107.981 434.467C107.964 434.469 107.956 434.474 107.939 434.474C107.811 434.493 107.734 434.501 107.734 434.501C107.504 458.731 88.3548 469.365 88.3548 469.365C106.549 478.528 99.5121 505.304 99.5121 505.304C99.5121 505.304 99.9207 505.359 100.666 505.459C90.6684 504.159 82.8315 503.09 82.8315 503.09C82.8315 503.09 91.1069 471.63 69.7246 460.858C69.7246 460.858 92.2264 448.364 92.4946 419.894C92.4946 419.894 120.79 416.514 131.517 402.594L140.519 402.922C142.008 391.722 145.11 380.829 150.186 372.938C163.048 372.108 168.927 373.683 168.927 373.683L192.203 384.002C192.812 388.604 193.704 395.842 194.781 404.888L195.487 404.918L197.616 421.835L196.756 421.809Z" fill="#D9BAA6"/>
</g>
<path opacity="0.14" d="M213.794 514.998C220.224 523.863 169.991 595.595 164.749 605.933C163.661 608.079 118.438 628.746 114.865 629.144C97.6648 631.042 78.5536 605.565 72.7281 599.307C65.8554 591.915 50.4774 573.987 41.5699 559.637C23.425 530.416 16.9737 530.367 33.1519 492.475C36.3659 484.949 29.5038 466.421 28.4502 468.838C26.9305 472.316 3.89235 513.946 1.38292 523.228C-1.16907 532.668 8.83459 547.186 7.89382 547.754L11.4334 553.931C30.651 584.153 77.9555 689.072 77.9555 689.072L91.8947 726.139L199.319 694.106C195.392 659.502 214.78 649.683 221.721 592.592C222.704 584.495 219.49 521.751 213.794 514.998Z" fill="url(#paint0_linear_555_141)"/>
<path d="M136.041 186.745C134.5 186.745 133.246 185.612 133.246 184.22V146.36C133.246 144.968 134.5 143.835 136.041 143.835C137.582 143.835 138.835 144.968 138.835 146.36V184.22C138.835 185.612 137.582 186.745 136.041 186.745Z" fill="url(#paint1_linear_555_141)"/>
<path d="M420.031 189.471C418.294 189.471 416.881 188.194 416.881 186.625V143.952C416.881 142.384 418.294 141.109 420.031 141.109C421.768 141.109 423.181 142.386 423.181 143.952V186.625C423.181 188.196 421.768 189.471 420.031 189.471Z" fill="url(#paint2_linear_555_141)"/>
<path d="M136.041 121.436C134.5 121.436 133.246 121.029 133.246 120.529V106.939C133.246 106.439 134.5 106.032 136.041 106.032C137.582 106.032 138.835 106.439 138.835 106.939V120.529C138.835 121.031 137.582 121.436 136.041 121.436Z" fill="url(#paint3_linear_555_141)"/>
<path d="M136.041 248.925C134.5 248.925 133.246 247.793 133.246 246.401V208.54C133.246 207.148 134.5 206.016 136.041 206.016C137.582 206.016 138.835 207.148 138.835 208.54V246.401C138.835 247.793 137.582 248.925 136.041 248.925Z" fill="url(#paint4_linear_555_141)"/>
<path d="M176.253 586.75C154.438 586.75 136.691 569.003 136.691 547.189V39.5612C136.691 17.7469 154.438 0 176.253 0H380.465C402.28 0 420.025 17.7469 420.025 39.5612V547.189C420.025 569.003 402.278 586.75 380.465 586.75H176.253Z" fill="url(#paint5_linear_555_141)"/>
<path d="M420.027 45.1138H136.691V49.7176H420.027V45.1138Z" fill="#AAABAC"/>
<path d="M176.254 582.427C156.824 582.427 141.016 566.619 141.016 547.188V39.5606C141.016 20.1302 156.824 4.32227 176.254 4.32227H380.467C399.897 4.32227 415.705 20.1302 415.705 39.5606V547.188C415.705 566.619 399.897 582.427 380.467 582.427H176.254Z" fill="url(#paint6_linear_555_141)"/>
<path d="M176.256 580.696C157.781 580.696 142.75 565.665 142.75 547.188V39.5607C142.75 21.0859 157.781 6.05273 176.256 6.05273H380.469C398.946 6.05273 413.974 21.0838 413.974 39.5607V547.188C413.974 565.665 398.943 580.696 380.469 580.696H176.256Z" fill="url(#paint7_linear_555_141)"/>
<path d="M292.155 21.6777H249.616C248.141 21.6777 246.947 22.8739 246.947 24.3468C246.947 25.8218 248.143 27.0159 249.616 27.0159H292.155C293.63 27.0159 294.824 25.8197 294.824 24.3468C294.824 22.8718 293.628 21.6777 292.155 21.6777Z" fill="#4B4B4C"/>
<path d="M308.319 24.347C308.319 26.452 306.614 28.1569 304.509 28.1569C302.406 28.1569 300.699 26.452 300.699 24.347C300.699 22.2441 302.404 20.5371 304.509 20.5371C306.612 20.5371 308.319 22.2441 308.319 24.347Z" fill="#4B4B4C"/>
<g opacity="0.8">
<path d="M239.752 38.3239H226.435C219.924 38.3239 214.645 33.022 214.645 26.4813V17.1588C214.645 16.0669 213.764 15.1836 212.678 15.1836H177.459C163.771 15.1836 152.676 26.3281 152.676 40.0756V73.1749L198.565 79.1239L239.752 38.3239Z" fill="white"/>
<path d="M403.672 49.7181V40.0742C403.672 26.3266 392.577 15.1821 378.889 15.1821H343.67C342.584 15.1821 341.703 16.0676 341.703 17.1573V26.4799C341.703 31.0113 339.166 34.9447 335.443 36.9347L358.892 49.7139H403.672V49.7181Z" fill="white"/>
<path d="M319.332 350.849L308.922 391.915H278.177L263.114 427.707L250.62 447.241L152.676 500.071V546.673C152.676 560.421 163.771 571.565 177.459 571.565H378.892C392.58 571.565 403.676 560.421 403.676 546.673V302.959L338.073 330.028L319.332 350.849Z" fill="white"/>
<path d="M368.263 132.221L313.085 170.741L246.457 195.727L152.676 173.219V500.074L250.62 447.244L263.114 427.707L278.175 391.918H308.922L319.332 350.849L338.071 330.027L403.674 302.96V122.568L368.263 132.221Z" fill="white"/>
<path d="M313.085 170.741L368.263 132.22L403.674 122.568V49.7181H358.893L335.444 36.939C333.795 37.8223 331.913 38.3246 329.915 38.3246H239.752L198.565 79.1224L152.676 73.1756V173.221L246.455 195.729L313.085 170.741Z" fill="white"/>
</g>
<g opacity="0.3">
<path d="M403.68 40.0868V546.682C403.68 560.423 392.583 571.564 378.882 571.564H177.451C163.772 571.564 152.674 560.423 152.674 546.682V40.0868C152.674 26.3243 163.772 15.1841 177.451 15.1841H212.681C213.764 15.1841 214.637 16.0802 214.637 17.1614V26.4903C214.637 33.0289 219.926 38.3372 226.422 38.3372H329.907C331.905 38.3372 333.799 37.8179 335.445 36.9431C339.172 34.9445 341.692 31.0303 341.692 26.4903V17.1614C341.692 16.078 342.588 15.1841 343.669 15.1841H378.878C392.58 15.1841 403.68 26.3243 403.68 40.0868Z" fill="white"/>
</g>
<path opacity="0.2" d="M403.753 344.274V447.897L248.521 38.3346L327.32 39.2115C337.171 39.3222 344.563 30.2401 342.456 20.6175C342.06 18.8062 343.382 17.0715 345.233 16.9757L379.62 15.1836C392.946 15.1836 403.75 25.9875 403.75 39.3137C403.75 39.3137 403.753 334.855 403.753 344.274Z" fill="white"/>
<path d="M151.18 375.878C151.18 342.741 178.043 315.878 211.18 315.878H345.18C378.317 315.878 405.18 342.741 405.18 375.878V543.878C405.18 560.447 391.748 573.878 375.18 573.878H151.18V375.878Z" fill="#02264F"/>
<path d="M202.175 368.94V366.36H206.995V380.94H204.115V368.94H202.175Z" fill="white"/>
<path d="M200.411 431.1V428.9L206.951 419.54H210.211V428.66H211.971V431.1H210.211V433.94H207.411V431.1H200.411ZM207.591 422.54L203.491 428.66H207.591V422.54Z" fill="white"/>
<path d="M211.133 474.48L205.813 486.94H202.973L208.333 474.8H201.493V472.4H211.133V474.48Z" fill="white"/>
<path d="M276.163 377.78C277.443 376.714 278.463 375.827 279.223 375.12C279.983 374.4 280.616 373.654 281.123 372.88C281.629 372.107 281.883 371.347 281.883 370.6C281.883 369.92 281.723 369.387 281.403 369C281.083 368.614 280.589 368.42 279.923 368.42C279.256 368.42 278.743 368.647 278.383 369.1C278.023 369.54 277.836 370.147 277.823 370.92H275.103C275.156 369.32 275.629 368.107 276.523 367.28C277.429 366.454 278.576 366.04 279.963 366.04C281.483 366.04 282.649 366.447 283.463 367.26C284.276 368.06 284.683 369.12 284.683 370.44C284.683 371.48 284.403 372.474 283.843 373.42C283.283 374.367 282.643 375.194 281.923 375.9C281.203 376.594 280.263 377.434 279.103 378.42H285.003V380.74H275.123V378.66L276.163 377.78Z" fill="white"/>
<path d="M285.083 421.78H278.603V425.2C278.883 424.853 279.283 424.573 279.803 424.36C280.323 424.133 280.876 424.02 281.463 424.02C282.529 424.02 283.403 424.253 284.083 424.72C284.763 425.187 285.256 425.787 285.563 426.52C285.869 427.24 286.023 428.013 286.023 428.84C286.023 430.373 285.583 431.607 284.703 432.54C283.836 433.473 282.596 433.94 280.983 433.94C279.463 433.94 278.249 433.56 277.343 432.8C276.436 432.04 275.923 431.047 275.803 429.82H278.523C278.643 430.353 278.909 430.78 279.323 431.1C279.749 431.42 280.289 431.58 280.943 431.58C281.729 431.58 282.323 431.333 282.723 430.84C283.123 430.347 283.323 429.693 283.323 428.88C283.323 428.053 283.116 427.427 282.703 427C282.303 426.56 281.709 426.34 280.923 426.34C280.363 426.34 279.896 426.48 279.523 426.76C279.149 427.04 278.883 427.413 278.723 427.88H276.043V419.32H285.083V421.78Z" fill="white"/>
<path d="M277.723 479.22C276.389 478.527 275.723 477.453 275.723 476C275.723 475.28 275.903 474.627 276.263 474.04C276.636 473.44 277.189 472.967 277.923 472.62C278.669 472.26 279.576 472.08 280.643 472.08C281.709 472.08 282.609 472.26 283.343 472.62C284.089 472.967 284.643 473.44 285.003 474.04C285.376 474.627 285.563 475.28 285.563 476C285.563 476.733 285.383 477.38 285.023 477.94C284.663 478.487 284.183 478.913 283.583 479.22C284.316 479.54 284.889 480.007 285.303 480.62C285.716 481.233 285.923 481.96 285.923 482.8C285.923 483.707 285.689 484.5 285.223 485.18C284.769 485.847 284.143 486.36 283.343 486.72C282.543 487.08 281.643 487.26 280.643 487.26C279.643 487.26 278.743 487.08 277.943 486.72C277.156 486.36 276.529 485.847 276.063 485.18C275.609 484.5 275.383 483.707 275.383 482.8C275.383 481.96 275.589 481.233 276.003 480.62C276.416 479.993 276.989 479.527 277.723 479.22ZM282.843 476.4C282.843 475.747 282.643 475.24 282.243 474.88C281.856 474.52 281.323 474.34 280.643 474.34C279.976 474.34 279.443 474.52 279.043 474.88C278.656 475.24 278.463 475.753 278.463 476.42C278.463 477.02 278.663 477.5 279.063 477.86C279.476 478.22 280.003 478.4 280.643 478.4C281.283 478.4 281.809 478.22 282.223 477.86C282.636 477.487 282.843 477 282.843 476.4ZM280.643 480.44C279.883 480.44 279.263 480.633 278.783 481.02C278.316 481.407 278.083 481.96 278.083 482.68C278.083 483.347 278.309 483.893 278.763 484.32C279.229 484.733 279.856 484.94 280.643 484.94C281.429 484.94 282.049 484.727 282.503 484.3C282.956 483.873 283.183 483.333 283.183 482.68C283.183 481.973 282.949 481.427 282.483 481.04C282.016 480.64 281.403 480.44 280.643 480.44Z" fill="white"/>
<path d="M275.283 532.46C275.283 530.154 275.696 528.347 276.523 527.04C277.363 525.734 278.749 525.08 280.683 525.08C282.616 525.08 283.996 525.734 284.823 527.04C285.663 528.347 286.083 530.154 286.083 532.46C286.083 534.78 285.663 536.6 284.823 537.92C283.996 539.24 282.616 539.9 280.683 539.9C278.749 539.9 277.363 539.24 276.523 537.92C275.696 536.6 275.283 534.78 275.283 532.46ZM283.323 532.46C283.323 531.474 283.256 530.647 283.123 529.98C283.003 529.3 282.749 528.747 282.363 528.32C281.989 527.894 281.429 527.68 280.683 527.68C279.936 527.68 279.369 527.894 278.983 528.32C278.609 528.747 278.356 529.3 278.223 529.98C278.103 530.647 278.043 531.474 278.043 532.46C278.043 533.474 278.103 534.327 278.223 535.02C278.343 535.7 278.596 536.254 278.983 536.68C279.369 537.094 279.936 537.3 280.683 537.3C281.429 537.3 281.996 537.094 282.383 536.68C282.769 536.254 283.023 535.7 283.143 535.02C283.263 534.327 283.323 533.474 283.323 532.46Z" fill="white"/>
<path d="M349.418 370.2C349.485 368.867 349.952 367.84 350.818 367.12C351.698 366.387 352.852 366.02 354.278 366.02C355.252 366.02 356.085 366.194 356.778 366.54C357.472 366.874 357.992 367.334 358.338 367.92C358.698 368.494 358.878 369.147 358.878 369.88C358.878 370.72 358.658 371.434 358.218 372.02C357.792 372.594 357.278 372.98 356.678 373.18V373.26C357.452 373.5 358.052 373.927 358.478 374.54C358.918 375.154 359.138 375.94 359.138 376.9C359.138 377.7 358.952 378.414 358.578 379.04C358.218 379.667 357.678 380.16 356.958 380.52C356.252 380.867 355.398 381.04 354.398 381.04C352.892 381.04 351.665 380.66 350.718 379.9C349.772 379.14 349.272 378.02 349.218 376.54H351.938C351.965 377.194 352.185 377.72 352.598 378.12C353.025 378.507 353.605 378.7 354.338 378.7C355.018 378.7 355.538 378.514 355.898 378.14C356.272 377.754 356.458 377.26 356.458 376.66C356.458 375.86 356.205 375.287 355.698 374.94C355.192 374.594 354.405 374.42 353.338 374.42H352.758V372.12H353.338C355.232 372.12 356.178 371.487 356.178 370.22C356.178 369.647 356.005 369.2 355.658 368.88C355.325 368.56 354.838 368.4 354.198 368.4C353.572 368.4 353.085 368.574 352.738 368.92C352.405 369.254 352.212 369.68 352.158 370.2H349.418Z" fill="white"/>
<path d="M356.938 423C356.805 422.44 356.572 422.02 356.238 421.74C355.918 421.46 355.452 421.32 354.838 421.32C353.918 421.32 353.238 421.693 352.798 422.44C352.372 423.173 352.152 424.373 352.138 426.04C352.458 425.507 352.925 425.093 353.538 424.8C354.152 424.493 354.818 424.34 355.538 424.34C356.405 424.34 357.172 424.527 357.838 424.9C358.505 425.273 359.025 425.82 359.398 426.54C359.772 427.247 359.958 428.1 359.958 429.1C359.958 430.047 359.765 430.893 359.378 431.64C359.005 432.373 358.452 432.947 357.718 433.36C356.985 433.773 356.112 433.98 355.098 433.98C353.712 433.98 352.618 433.673 351.818 433.06C351.032 432.447 350.478 431.593 350.158 430.5C349.852 429.393 349.698 428.033 349.698 426.42C349.698 423.98 350.118 422.14 350.958 420.9C351.798 419.647 353.125 419.02 354.938 419.02C356.338 419.02 357.425 419.4 358.198 420.16C358.972 420.92 359.418 421.867 359.538 423H356.938ZM354.898 426.64C354.192 426.64 353.598 426.847 353.118 427.26C352.638 427.673 352.398 428.273 352.398 429.06C352.398 429.847 352.618 430.467 353.058 430.92C353.512 431.373 354.145 431.6 354.958 431.6C355.678 431.6 356.245 431.38 356.658 430.94C357.085 430.5 357.298 429.907 357.298 429.16C357.298 428.387 357.092 427.773 356.678 427.32C356.278 426.867 355.685 426.64 354.898 426.64Z" fill="white"/>
<path d="M352.618 482.84C352.725 483.427 352.965 483.88 353.338 484.2C353.725 484.507 354.238 484.66 354.878 484.66C355.705 484.66 356.305 484.32 356.678 483.64C357.052 482.947 357.238 481.787 357.238 480.16C356.932 480.587 356.498 480.92 355.938 481.16C355.392 481.4 354.798 481.52 354.158 481.52C353.305 481.52 352.532 481.347 351.838 481C351.158 480.64 350.618 480.113 350.218 479.42C349.818 478.713 349.618 477.86 349.618 476.86C349.618 475.38 350.058 474.207 350.938 473.34C351.818 472.46 353.018 472.02 354.538 472.02C356.432 472.02 357.765 472.627 358.538 473.84C359.325 475.053 359.718 476.88 359.718 479.32C359.718 481.053 359.565 482.473 359.258 483.58C358.965 484.687 358.452 485.527 357.718 486.1C356.998 486.673 356.012 486.96 354.758 486.96C353.772 486.96 352.932 486.773 352.238 486.4C351.545 486.013 351.012 485.513 350.638 484.9C350.278 484.273 350.072 483.587 350.018 482.84H352.618ZM354.738 479.24C355.432 479.24 355.978 479.027 356.378 478.6C356.778 478.173 356.978 477.6 356.978 476.88C356.978 476.093 356.765 475.487 356.338 475.06C355.925 474.62 355.358 474.4 354.638 474.4C353.918 474.4 353.345 474.627 352.918 475.08C352.505 475.52 352.298 476.107 352.298 476.84C352.298 477.547 352.498 478.127 352.898 478.58C353.312 479.02 353.925 479.24 354.738 479.24Z" fill="white"/>
<path d="M201.384 383.816C203.562 397.115 221.2 551.71 222.13 581.374C223.058 611.04 209.875 642.834 202.576 662.599C195.28 682.366 203.289 759.613 204.558 771.728C205.826 783.839 91.2548 743.854 91.2548 743.854L68.8828 563.618L145.743 510.684C145.743 510.684 148.876 446.424 149.295 421.715C149.712 397.011 157.466 367.947 176.871 365.508C200.143 362.594 201.384 383.816 201.384 383.816Z" fill="#FFCAB3"/>
<path opacity="0.3" d="M178.465 409.66L179.324 372.478C155.663 372.019 160.641 396.934 159.9 407.693L178.465 409.66Z" fill="#FBE7DE"/>
<path d="M193.874 411.282C193.704 403.317 202.718 373.002 179.439 372.467C155.637 371.918 160.639 396.91 159.9 407.693" fill="#FFD8CA"/>
<path d="M201.463 416.479C200.982 423.241 190.399 427.994 177.822 427.094C165.239 426.195 155.423 419.978 155.897 413.221C156.361 406.458 166.95 401.708 179.525 402.602C192.111 403.504 201.927 409.711 201.463 416.479Z" fill="#FFCAB3"/>
<path d="M233.869 737.15L67.2853 742.805L62.9199 687.987L235.815 678.79L233.869 737.15Z" fill="#F2F2F2"/>
<path d="M233.869 737.15L67.2852 742.805L91.4663 701.852L235.815 678.79L233.869 737.15Z" fill="#E6E6E6"/>
<path d="M260.543 901.137L253.366 722.344L44.5 732.284L51.675 901.137H260.543Z" fill="#07458B"/>
<path d="M161.041 726.739L174.065 901.137H260.545L253.368 722.344L161.041 726.739Z" fill="#0B51A1"/>
<path d="M221.004 179.182L223.98 184.51L218.364 186.43L223.98 188.254L220.812 193.822L216.3 189.646L217.596 195.598H211.452L212.7 189.646L208.284 193.918L204.972 188.206L210.588 186.286L205.068 184.558L208.044 179.23L212.748 183.262L211.356 177.262H217.644L216.3 183.262L221.004 179.182ZM229.781 188.254C229.909 184.638 231.029 181.87 233.141 179.95C235.253 177.998 238.197 177.022 241.973 177.022C244.437 177.022 246.533 177.454 248.261 178.318C250.021 179.15 251.349 180.302 252.245 181.774C253.141 183.214 253.589 184.846 253.589 186.67C253.589 188.846 253.061 190.59 252.005 191.902C250.949 193.182 249.749 194.046 248.405 194.494V194.686C252.277 196.126 254.213 198.878 254.213 202.942C254.213 204.958 253.749 206.734 252.821 208.27C251.893 209.806 250.549 211.006 248.789 211.87C247.029 212.734 244.933 213.166 242.501 213.166C238.501 213.166 235.333 212.206 232.997 210.286C230.693 208.334 229.493 205.358 229.397 201.358H238.565C238.501 202.638 238.773 203.63 239.381 204.334C239.989 205.038 240.901 205.39 242.117 205.39C243.045 205.39 243.765 205.102 244.277 204.526C244.821 203.95 245.093 203.182 245.093 202.222C245.093 201.006 244.693 200.11 243.893 199.534C243.125 198.958 241.861 198.67 240.101 198.67H238.421V191.038H240.053C241.269 191.07 242.293 190.878 243.125 190.462C243.989 190.014 244.421 189.134 244.421 187.822C244.421 186.83 244.181 186.094 243.701 185.614C243.221 185.102 242.565 184.846 241.733 184.846C240.805 184.846 240.117 185.182 239.669 185.854C239.253 186.494 239.013 187.294 238.949 188.254H229.781ZM257.637 186.622V177.79H272.421V212.878H262.581V186.622H257.637ZM302.744 186.094H288.344V191.422C288.952 190.782 289.784 190.27 290.84 189.886C291.896 189.502 293.064 189.31 294.344 189.31C296.648 189.31 298.568 189.838 300.104 190.894C301.672 191.95 302.824 193.342 303.56 195.07C304.296 196.798 304.664 198.686 304.664 200.734C304.664 204.51 303.592 207.486 301.448 209.662C299.304 211.806 296.328 212.878 292.52 212.878C289.864 212.878 287.56 212.43 285.608 211.534C283.688 210.606 282.216 209.326 281.192 207.694C280.168 206.062 279.64 204.19 279.608 202.078H288.776C288.872 202.814 289.192 203.454 289.736 203.998C290.28 204.542 291.08 204.814 292.136 204.814C293.256 204.814 294.104 204.43 294.68 203.662C295.256 202.894 295.544 201.87 295.544 200.59C295.544 199.342 295.24 198.398 294.632 197.758C294.024 197.086 293.144 196.75 291.992 196.75C291.128 196.75 290.424 196.974 289.88 197.422C289.368 197.838 289.064 198.366 288.968 199.006H279.8V177.79H302.744V186.094ZM342.309 192.238L341.109 197.71H346.677V206.254H339.285L337.893 212.878H329.109L330.501 206.254H323.157L321.765 212.878H313.029L314.421 206.254H307.509V197.71H316.245L317.445 192.238H310.677V183.694H319.269L320.613 177.358H329.349L328.005 183.694H335.349L336.693 177.358H345.477L344.133 183.694H349.845V192.238H342.309ZM333.525 192.238H326.181L324.981 197.71H332.325L333.525 192.238Z" fill="#02264F"/>
<defs>
<linearGradient id="paint0_linear_555_141" x1="219.635" y1="733.041" x2="-22.2766" y2="325.495" gradientUnits="userSpaceOnUse">
<stop offset="0.2743" stop-color="#D9BAA6"/>
<stop offset="0.4346" stop-color="#DEC3B1"/>
<stop offset="0.716" stop-color="#EDDACE"/>
<stop offset="1" stop-color="#FFF7F2"/>
</linearGradient>
<linearGradient id="paint1_linear_555_141" x1="136.04" y1="144.634" x2="136.04" y2="185.79" gradientUnits="userSpaceOnUse">
<stop offset="0.0293"/>
<stop offset="0.703" stop-color="#383F37"/>
</linearGradient>
<linearGradient id="paint2_linear_555_141" x1="420.031" y1="142.008" x2="420.031" y2="188.397" gradientUnits="userSpaceOnUse">
<stop offset="0.0293"/>
<stop offset="0.703" stop-color="#383F37"/>
</linearGradient>
<linearGradient id="paint3_linear_555_141" x1="136.04" y1="106.32" x2="136.04" y2="121.094" gradientUnits="userSpaceOnUse">
<stop offset="0.0293"/>
<stop offset="0.703" stop-color="#383F37"/>
</linearGradient>
<linearGradient id="paint4_linear_555_141" x1="136.04" y1="206.815" x2="136.04" y2="247.972" gradientUnits="userSpaceOnUse">
<stop offset="0.0293"/>
<stop offset="0.703" stop-color="#383F37"/>
</linearGradient>
<linearGradient id="paint5_linear_555_141" x1="136.692" y1="293.376" x2="420.027" y2="293.376" gradientUnits="userSpaceOnUse">
<stop offset="0.4918" stop-color="#575757"/>
<stop offset="0.9163" stop-color="#969696"/>
</linearGradient>
<linearGradient id="paint6_linear_555_141" x1="141.016" y1="293.375" x2="415.706" y2="293.375" gradientUnits="userSpaceOnUse">
<stop offset="0.0799" stop-color="#40403F"/>
<stop offset="0.5001" stop-color="#40403F"/>
<stop offset="0.745" stop-color="#3E3E3D"/>
<stop offset="0.8332" stop-color="#373736"/>
<stop offset="0.8961" stop-color="#2C2C2B"/>
<stop offset="0.9469" stop-color="#1B1B1A"/>
<stop offset="0.9899" stop-color="#050505"/>
<stop offset="0.9979"/>
</linearGradient>
<linearGradient id="paint7_linear_555_141" x1="142.75" y1="293.375" x2="413.976" y2="293.375" gradientUnits="userSpaceOnUse">
<stop/>
<stop offset="0.13" stop-color="#010101"/>
<stop offset="0.2692" stop-color="#080808"/>
<stop offset="0.562" stop-color="#111111"/>
<stop offset="1" stop-color="#141414"/>
</linearGradient>
</defs>
</svg>
