<svg width="68" height="68" viewBox="0 0 68 68" fill="none" xmlns="http://www.w3.org/2000/svg">
<path d="M61.8098 13.15C61.5552 12.8592 61.2433 12.6241 60.8936 12.4594C60.5439 12.2947 60.164 12.2039 59.7777 12.1928C53.7754 12.0358 46.1803 5.61768 41.1587 3.09906C38.0569 1.54814 36.0091 0.525522 34.4712 0.256137C34.1589 0.210636 33.8417 0.211517 33.5297 0.258752C31.9918 0.528137 29.944 1.55075 26.8447 3.10168C21.8232 5.61768 14.2281 12.0358 8.22582 12.1928C7.83919 12.2045 7.45909 12.2955 7.10908 12.4602C6.75906 12.6248 6.4466 12.8596 6.19105 13.15C5.66137 13.7493 5.38808 14.5325 5.42998 15.3312C6.71936 41.5452 16.1217 57.7684 32.6195 67.1969C33.0484 67.4401 33.5244 67.5657 33.9978 67.5657C34.4712 67.5657 34.9472 67.4401 35.3787 67.1969C51.8766 57.7684 61.2763 41.5452 62.5683 15.3312C62.6126 14.5326 62.34 13.7488 61.8098 13.15ZM48.6911 23.4598L34.7694 44.0037C34.2698 44.7412 33.4852 45.2303 32.7084 45.2303C31.9291 45.2303 31.0634 44.804 30.5167 44.2574L20.7038 34.4418C20.3834 34.1203 20.2036 33.6848 20.2036 33.2309C20.2036 32.777 20.3834 32.3416 20.7038 32.02L23.1283 29.5903C23.4505 29.2712 23.8857 29.0922 24.3392 29.0922C24.7927 29.0922 25.2279 29.2712 25.5501 29.5903L31.9317 35.9718L43.0183 19.6074C43.2748 19.2329 43.6691 18.9751 44.115 18.8903C44.5609 18.8056 45.0222 18.9007 45.3983 19.1549L48.236 21.0798C48.6109 21.3359 48.8692 21.73 48.9544 22.176C49.0397 22.6219 48.945 23.0835 48.6911 23.4598Z" fill="#185DAB"/>
</svg>
