<svg width="68" height="68" viewBox="0 0 68 68" fill="none" xmlns="http://www.w3.org/2000/svg">
<path d="M34.0007 5.6665C26.1892 5.6665 19.834 12.0217 19.834 19.8332V28.3332H17.0007C15.4978 28.3332 14.0564 28.9302 12.9937 29.9929C11.931 31.0556 11.334 32.4969 11.334 33.9998V56.6665C11.334 58.1694 11.931 59.6107 12.9937 60.6734C14.0564 61.7362 15.4978 62.3332 17.0007 62.3332H51.0006C52.5035 62.3332 53.9449 61.7362 55.0076 60.6734C56.0703 59.6107 56.6673 58.1694 56.6673 56.6665V33.9998C56.6673 32.4969 56.0703 31.0556 55.0076 29.9929C53.9449 28.9302 52.5035 28.3332 51.0006 28.3332H48.1673V19.8332C48.1673 12.0217 41.8122 5.6665 34.0007 5.6665ZM25.5007 19.8332C25.5007 15.1468 29.3143 11.3332 34.0007 11.3332C38.687 11.3332 42.5007 15.1468 42.5007 19.8332V28.3332H25.5007V19.8332ZM36.834 50.215V56.6665H31.1673V50.215C30.1767 49.6477 29.3813 48.7936 28.886 47.7652C28.3907 46.7368 28.2186 45.5824 28.3926 44.4542C28.5666 43.326 29.0783 42.2771 29.8605 41.4456C30.6426 40.6142 31.6584 40.0393 32.7738 39.7968C33.6023 39.6136 34.4614 39.6188 35.2877 39.8118C36.114 40.0049 36.8864 40.3809 37.5479 40.9122C38.2095 41.4436 38.7434 42.1166 39.1102 42.8818C39.477 43.6469 39.6674 44.4846 39.6673 45.3332C39.6657 46.3241 39.4029 47.2971 38.9055 48.1542C38.4081 49.0112 37.6936 49.722 36.834 50.215Z" fill="#185DAB"/>
</svg>
