<svg width="551" height="424" viewBox="0 0 551 424" fill="none" xmlns="http://www.w3.org/2000/svg">
<g filter="url(#filter0_d_469_975)">
<path d="M197.914 385.317C182.75 393.318 163.904 387.491 155.903 372.326L22.5098 119.5C14.5092 104.336 20.3371 85.4898 35.501 77.4893L139.7 22.5127C154.864 14.5122 173.71 20.3401 181.711 35.504L315.104 288.33C323.105 303.495 317.277 322.34 302.113 330.341L197.914 385.317Z" fill="#1E1E1E"/>
<rect x="16.1064" y="94.5059" width="168" height="336" rx="25" transform="rotate(-27.8165 16.1064 94.5059)" fill="url(#paint0_linear_469_975)"/>
<path d="M114.781 56.4647L78.3889 75.6656C75.0298 77.4379 70.8698 76.1515 69.0975 72.7924L65.5869 66.1387L114.143 40.52L117.654 47.1737C119.427 50.5324 118.14 54.6924 114.781 56.4647Z" fill="#1E1E1E"/>
<path d="M112.793 52.4251C113.673 51.9612 114.009 50.8724 113.545 49.9931C113.082 49.1139 111.993 48.7772 111.114 49.2411C110.234 49.705 109.898 50.7938 110.361 51.6731C110.825 52.5523 111.914 52.889 112.793 52.4251Z" fill="black"/>
<path d="M112.545 51.9537C113.164 51.6271 113.401 50.8607 113.075 50.2418C112.748 49.623 111.982 49.3859 111.363 49.7125C110.744 50.039 110.507 50.8054 110.833 51.4243C111.16 52.0432 111.926 52.2802 112.545 51.9537Z" fill="black"/>
<path d="M107.222 55.3657L81.7495 68.805C80.8739 69.267 79.7795 68.9285 79.3175 68.0529C78.8555 67.1773 79.194 66.0829 80.0696 65.621L105.542 52.1817C106.417 51.7197 107.512 52.0581 107.974 52.9337C108.436 53.8093 108.097 54.9037 107.222 55.3657Z" fill="black"/>
<path d="M208.77 354.663L270.208 322.247" stroke="black" stroke-width="2" stroke-miterlimit="10" stroke-linecap="round" stroke-linejoin="round"/>
</g>
<g filter="url(#filter1_d_469_975)">
<path d="M259.705 324.228C244.429 316.444 238.332 297.684 246.117 282.406L375.893 27.705C383.677 12.4287 402.438 6.33271 417.715 14.1164L522.687 67.6024C537.963 75.386 544.059 94.1474 536.275 109.424L406.499 364.125C398.715 379.402 379.954 385.497 364.677 377.714L259.705 324.228Z" fill="#1E1E1E"/>
<rect x="392.632" y="8.07031" width="168" height="336" rx="25" transform="rotate(27 392.632 8.07031)" fill="url(#paint1_linear_469_975)"/>
<path d="M480.579 66.798L443.917 48.1176C440.533 46.3934 439.188 42.2521 440.912 38.8681L444.327 32.165L493.243 57.0891L489.828 63.7922C488.105 67.1767 483.963 68.5222 480.579 66.798Z" fill="#1E1E1E"/>
<path d="M482.735 62.8461C483.621 63.2974 484.705 62.9452 485.156 62.0595C485.607 61.1737 485.255 60.0898 484.369 59.6385C483.484 59.1872 482.4 59.5393 481.948 60.4251C481.497 61.3109 481.849 62.3948 482.735 62.8461Z" fill="black"/>
<path d="M482.978 62.3711C483.601 62.6888 484.364 62.4409 484.682 61.8174C484.999 61.1939 484.751 60.431 484.128 60.1133C483.504 59.7956 482.741 60.0435 482.424 60.667C482.106 61.2905 482.354 62.0534 482.978 62.3711Z" fill="black"/>
<path d="M477.123 59.9855L451.462 46.9106C450.58 46.4611 450.226 45.3717 450.675 44.4896C451.124 43.6075 452.214 43.2535 453.096 43.7029L478.757 56.7779C479.639 57.2273 479.993 58.3168 479.544 59.1989C479.094 60.081 478.005 60.4349 477.123 59.9855Z" fill="black"/>
<path d="M291.015 315.438L352.909 346.974" stroke="black" stroke-width="2" stroke-miterlimit="10" stroke-linecap="round" stroke-linejoin="round"/>
</g>
<path d="M217.094 373.049C199.949 373.049 186 359.101 186 341.955V56.0969C186 38.9519 199.949 25.0029 217.094 25.0029H334.907C352.052 25.0029 366.001 38.9519 366.001 56.0969V341.955C366.001 359.101 352.052 373.049 334.907 373.049H217.094Z" fill="#1E1E1E"/>
<rect x="192" y="31.0029" width="168" height="336" rx="25" fill="url(#paint2_linear_469_975)"/>
<path d="M297.024 43.4029H255.877C252.079 43.4029 249 40.3239 249 36.5259V29.0029H303.9V36.5259C303.901 40.3239 300.822 43.4029 297.024 43.4029Z" fill="#1E1E1E"/>
<path d="M297.151 38.9027C298.145 38.9027 298.951 38.0968 298.951 37.1027C298.951 36.1086 298.145 35.3027 297.151 35.3027C296.156 35.3027 295.351 36.1086 295.351 37.1027C295.351 38.0968 296.156 38.9027 297.151 38.9027Z" fill="black"/>
<path d="M297.151 38.3699C297.851 38.3699 298.418 37.8027 298.418 37.1029C298.418 36.4032 297.851 35.8359 297.151 35.8359C296.451 35.8359 295.884 36.4032 295.884 37.1029C295.884 37.8027 296.451 38.3699 297.151 38.3699Z" fill="black"/>
<path d="M290.851 38.9027H262.051C261.061 38.9027 260.251 38.0927 260.251 37.1027C260.251 36.1127 261.061 35.3027 262.051 35.3027H290.851C291.841 35.3027 292.651 36.1127 292.651 37.1027C292.651 38.0927 291.841 38.9027 290.851 38.9027Z" fill="black"/>
<path d="M241 351.003H310.466" stroke="black" stroke-width="2" stroke-miterlimit="10" stroke-linecap="round" stroke-linejoin="round"/>
<defs>
<filter id="filter0_d_469_975" x="0.920898" y="18.9238" width="325.772" height="404.982" filterUnits="userSpaceOnUse" color-interpolation-filters="sRGB">
<feFlood flood-opacity="0" result="BackgroundImageFix"/>
<feColorMatrix in="SourceAlpha" type="matrix" values="0 0 0 0 0 0 0 0 0 0 0 0 0 0 0 0 0 0 127 0" result="hardAlpha"/>
<feOffset dx="-5" dy="22"/>
<feGaussianBlur stdDeviation="6.5"/>
<feColorMatrix type="matrix" values="0 0 0 0 0 0 0 0 0 0 0 0 0 0 0 0 0 0 0.56 0"/>
<feBlend mode="normal" in2="BackgroundImageFix" result="effect1_dropShadow_469_975"/>
<feBlend mode="normal" in="SourceGraphic" in2="effect1_dropShadow_469_975" result="shape"/>
</filter>
<filter id="filter1_d_469_975" x="224.73" y="10.7305" width="322.931" height="405.369" filterUnits="userSpaceOnUse" color-interpolation-filters="sRGB">
<feFlood flood-opacity="0" result="BackgroundImageFix"/>
<feColorMatrix in="SourceAlpha" type="matrix" values="0 0 0 0 0 0 0 0 0 0 0 0 0 0 0 0 0 0 127 0" result="hardAlpha"/>
<feOffset dx="-5" dy="22"/>
<feGaussianBlur stdDeviation="6.5"/>
<feColorMatrix type="matrix" values="0 0 0 0 0 0 0 0 0 0 0 0 0 0 0 0 0 0 0.56 0"/>
<feBlend mode="normal" in2="BackgroundImageFix" result="effect1_dropShadow_469_975"/>
<feBlend mode="normal" in="SourceGraphic" in2="effect1_dropShadow_469_975" result="shape"/>
</filter>
<linearGradient id="paint0_linear_469_975" x1="100.106" y1="94.5059" x2="100.106" y2="430.506" gradientUnits="userSpaceOnUse">
<stop stop-color="#07458B"/>
<stop offset="1" stop-color="#BFBEFF"/>
</linearGradient>
<linearGradient id="paint1_linear_469_975" x1="476.632" y1="8.07031" x2="476.632" y2="344.07" gradientUnits="userSpaceOnUse">
<stop stop-color="#07458B"/>
<stop offset="1" stop-color="#BFBEFF"/>
</linearGradient>
<linearGradient id="paint2_linear_469_975" x1="276" y1="31.0029" x2="276" y2="367.003" gradientUnits="userSpaceOnUse">
<stop stop-color="#07458B"/>
<stop offset="1" stop-color="#BFBEFF"/>
</linearGradient>
</defs>
</svg>
